<?xml version="1.0" encoding="UTF-8"?>
<!DOCTYPE svg PUBLIC "-//W3C//DTD SVG 1.1//EN" "http://www.w3.org/Graphics/SVG/1.1/DTD/svg11.dtd">
<!-- Creator: CorelDRAW X6 -->
<svg xmlns="http://www.w3.org/2000/svg" xml:space="preserve" width="100%" height="100%" version="1.1" style="shape-rendering:geometricPrecision; text-rendering:geometricPrecision; image-rendering:optimizeQuality; fill-rule:evenodd; clip-rule:evenodd"
viewBox="0 0 500 500"
 xmlns:xlink="http://www.w3.org/1999/xlink">
 <defs>
  <style type="text/css">
   <![CDATA[
    .str0 {stroke:#0062A4;stroke-width:5}
    .fil3 {fill:none}
    .fil0 {fill:url(#id0)}
    .fil2 {fill:url(#id1)}
    .fil1 {fill:url(#id2)}
   ]]>
  </style>
  <linearGradient id="id0" gradientUnits="userSpaceOnUse" x1="250.73" y1="131.189" x2="250.73" y2="368.811">
   <stop offset="0" style="stop-color:#B9E3FF"/>
   <stop offset="1" style="stop-color:#0078C8"/>
  </linearGradient>
  <linearGradient id="id1" gradientUnits="userSpaceOnUse" x1="152.313" y1="277.858" x2="347.687" y2="390.657">
   <stop offset="0" style="stop-color:#0083DB"/>
   <stop offset="1" style="stop-color:#5DBEFF"/>
  </linearGradient>
  <linearGradient id="id2" gradientUnits="userSpaceOnUse" x1="217.428" y1="133.17" x2="282.572" y2="198.315">
   <stop offset="0" style="stop-color:#17A2FF"/>
   <stop offset="1" style="stop-color:#74C7FF"/>
  </linearGradient>
 </defs>
 <g id="Layer_x0020_1">
  <metadata id="CorelCorpID_0Corel-Layer"/>
  <path class="fil0" d="M468 239l-164 -163c-5,-5 -11,-6 -17,-4 -5,3 -9,8 -9,14l0 69c0,8 -7,15 -15,15l-220 0c-8,0 -15,7 -15,15l0 130c0,8 7,15 15,15l220 0c8,0 15,7 15,15l0 69c0,6 4,11 9,14 6,2 12,1 17,-4l164 -163c5,-6 5,-16 0,-22z"/>
  <path class="fil1" d="M38 250l424 0c0,-2 -1,-5 -3,-6l-157 -159c-2,-3 -6,-4 -10,-2 -3,1 -5,4 -5,8l0 75c0,6 -7,13 -14,13l-226 0c-5,0 -9,4 -9,9l0 62z"/>
  <path class="fil2" d="M38 250l424 0c0,2 -1,5 -3,6l-157 159c-2,3 -6,4 -10,2 -3,-1 -5,-4 -5,-8l0 -75c0,-6 -7,-13 -14,-13l-226 0c-5,0 -9,-4 -9,-9l0 -62z"/>
  <path class="fil3 str0" d="M468 239l-164 -163c-5,-5 -11,-6 -17,-4 -5,3 -9,8 -9,14l0 69c0,8 -7,15 -15,15l-220 0c-8,0 -15,7 -15,15l0 130c0,8 7,15 15,15l220 0c8,0 15,7 15,15l0 69c0,6 4,11 9,14 6,2 12,1 17,-4l164 -163c5,-6 5,-16 0,-22z"/>
 </g>
</svg>
